<svg xmlns="http://www.w3.org/2000/svg" xmlns:xlink="http://www.w3.org/1999/xlink" width="1366" height="553" viewBox="0 0 1366 553">
  <defs>
    <clipPath id="clip-path">
      <rect id="Retângulo_10745" data-name="Retângulo 10745" width="1366" height="553" transform="translate(0 3409)" fill="#fff"/>
    </clipPath>
    <clipPath id="clip-path-2">
      <rect id="Retângulo_7546" data-name="Retângulo 7546" width="1209.68" height="347.735" fill="none"/>
    </clipPath>
    <clipPath id="clip-path-3">
      <rect id="Retângulo_5248" data-name="Retângulo 5248" width="1064" height="587" transform="translate(0.363 -0.177)" fill="#fff" stroke="#707070" stroke-width="1"/>
    </clipPath>
    <clipPath id="clip-path-4">
      <rect id="Retângulo_1" data-name="Retângulo 1" width="2247" height="1303" transform="translate(0.067 0.096)" fill="#fff" stroke="#707070" stroke-width="1"/>
    </clipPath>
    <clipPath id="clip-path-5">
      <rect id="Retângulo_3" data-name="Retângulo 3" width="2247.835" height="1287.205" fill="#fff"/>
    </clipPath>
    <clipPath id="clip-path-6">
      <rect id="Retângulo_9743" data-name="Retângulo 9743" width="50" height="49" transform="translate(0.445 -0.087)" fill="#fff" stroke="#707070" stroke-width="1"/>
    </clipPath>
  </defs>
  <g id="Grupo_15860" data-name="Grupo 15860" transform="translate(-880 -3127)">
    <g id="Grupo_15858" data-name="Grupo 15858" transform="translate(759 23)">
      <g id="Grupo_15857" data-name="Grupo 15857" transform="translate(-178 -60)">
        <g id="Grupo_de_máscara_7397" data-name="Grupo de máscara 7397" transform="translate(299 -245)" opacity="0.31" clip-path="url(#clip-path)">
          <g id="Grupo_15836" data-name="Grupo 15836">
            <g id="Grupo_15834" data-name="Grupo 15834" transform="translate(-263 181)">
              <path id="Caminho_145010" data-name="Caminho 145010" d="M108.513,1115.587c62.852,60.444,140.05,69.748,219,74.112s161.868-14.606,221.412-65.1C672.505,1019.764,664.142,814.92,793.154,716.5c80.209-61.309,194.167-63.148,292.44-36.5s187.142,78.043,281.178,116.451,199.928,63.906,297.718,35.667c150.346-43.277,238.658-212.129,215.576-362.661s-137.82-277.153-275.492-350.111S1308.232,20.21,1151.9,7.551C924.952-10.77,687.856-.96,483.133,95.908,222.063,219.464,16.039,464.34,1.134,745.821c-6.5,122.979,13.12,287.251,107.379,369.73" transform="matrix(0.993, 0.122, -0.122, 0.993, -78.641, 3241.718)" fill="#8ccdf2"/>
              <g id="Grupo_11062" data-name="Grupo 11062" transform="translate(441.062 3446.109)">
                <g id="Grupo_11061" data-name="Grupo 11061" clip-path="url(#clip-path-2)">
                  <path id="Caminho_145011" data-name="Caminho 145011" d="M563.888,288.363c11.243-47.76-20.464-81.759-55.8-85.141a18.063,18.063,0,0,1-15.948-22.367C522.612,61.705,355.3-15.129,278.489,114.316,203.051,63.246,98.564,95.835,36.807,219.673c-39.054-1,19.747,110.8,19.747,110.8H641.645c22.883-34.78-11.164-73.693-77.756-42.11" transform="translate(535.844 3.345)" fill="#7ec172"/>
                  <path id="Caminho_145012" data-name="Caminho 145012" d="M363.606,217.027C425.362,93.188,529.85,60.6,605.287,111.669A163.082,163.082,0,0,1,625.52,84.278V327.827H383.352s-58.8-111.8-19.747-110.8" transform="translate(209.045 5.992)" fill="#3e7543"/>
                  <path id="Caminho_145013" data-name="Caminho 145013" d="M23.418,330.483S82.068,39.075,226.471,47.676c41.433,2.468,82.658,23.181,87.394,81.6,5.033,62.062-69.053,149.24-73.529,189.08,0,0,27.753-25.068,62.22-19.7C338.235,304.22,445.945,365.3,478.933,288.5c7.421,7.912,9.812,18.948,6.292,30.429a53.043,53.043,0,0,1-3.541,8.258q-.9,1.631-1.971,3.256H179.437Z" transform="translate(697.776 3.376)" fill="#5ea05b"/>
                  <path id="Caminho_145014" data-name="Caminho 145014" d="M122.769,276.477c12.042,0,23.579-11.051,28.168-17.17a1.343,1.343,0,1,0-2.149-1.611c-3.615,4.821-15.609,17.113-27.5,16.029a1.343,1.343,0,1,0-.24,2.676c.572.051,1.147.076,1.718.076" transform="translate(930.129 18.284)" fill="#fff"/>
                  <path id="Caminho_145015" data-name="Caminho 145015" d="M159.285,249.513a1.343,1.343,0,0,0,.466-2.6c-10.067-3.718-15.421-17.671-16.133-22.06a1.343,1.343,0,0,0-2.652.431c.809,4.986,6.542,19.972,17.853,24.149a1.318,1.318,0,0,0,.466.084" transform="translate(898.082 15.906)" fill="#fff"/>
                  <path id="Caminho_145016" data-name="Caminho 145016" d="M168.76,240.568c-.215,1.793-.458,3.815-.789,6.01-.292,2.2-.706,4.574-1.117,7.085-.465,2.5-.923,5.148-1.515,7.862q-.437,2.039-.888,4.138-.506,2.085-1.022,4.215c-.33,1.421-.707,2.845-1.109,4.266l-1.188,4.283c-.991,2.965-1.738,5.757-2.709,8.438q-.728,2.071-1.44,4.1l-1.56,3.951c-.974,2.617-2.157,5.049-3.181,7.4-.5,1.18-1.084,2.284-1.627,3.361l-1.58,3.116c-1.014,2-2.119,3.739-3.008,5.33-.711,1.3-1.441,2.4-2.078,3.355h-4.8c.3-.441.651-.953,1.056-1.547.709-1.045,1.608-2.291,2.476-3.829s1.974-3.194,2.987-5.12q.757-1.446,1.577-3.006c.543-1.039,1.128-2.1,1.63-3.248,1.029-2.275,2.219-4.627,3.208-7.174q.778-1.894,1.581-3.844.726-1.981,1.467-4c1.033-2.678,1.852-5.483,2.779-8.25q.615-2.1,1.227-4.2c.417-1.393.808-2.789,1.152-4.186s.714-2.774,1.066-4.139q.474-2.063.935-4.068c.622-2.669,1.111-5.276,1.6-7.74.441-2.475.885-4.811,1.2-6.982.358-2.165.626-4.158.864-5.924s.4-3.3.556-4.569c.256-2.56.4-4.022.4-4.022v-.01a1.343,1.343,0,0,1,2.675.25s-.126,1.468-.346,4.037c-.141,1.291-.271,2.873-.5,4.66" transform="translate(891.02 16.382)" fill="#fff"/>
                  <path id="Caminho_145017" data-name="Caminho 145017" d="M96.377,295.5c-.295.59-.789,1.319-1.324,2.152a32.133,32.133,0,0,1-1.92,2.681,16.991,16.991,0,0,1-1.2,1.445c-.435.483-.863,1-1.344,1.5a40.831,40.831,0,0,1-3.2,2.939,20.383,20.383,0,0,1-1.806,1.414c-.635.442-1.251.936-1.924,1.348l-2.03,1.253c-.692.4-1.41.754-2.115,1.133s-1.435.706-2.161,1.031c-.56.243-1.114.5-1.674.725H61.505c.262-.036.512-.067.785-.109,1.109-.209,2.322-.39,3.585-.661,1.252-.3,2.6-.548,3.938-.966.674-.2,1.367-.376,2.054-.6l2.065-.717c.7-.221,1.372-.536,2.062-.813s1.382-.558,2.038-.905,1.34-.647,1.991-1l1.909-1.109c.634-.363,1.208-.8,1.808-1.2a17.906,17.906,0,0,0,1.7-1.257,37.522,37.522,0,0,0,3.019-2.627c.456-.443.861-.914,1.276-1.347a14.888,14.888,0,0,0,1.143-1.3,28.906,28.906,0,0,0,1.826-2.406c.5-.738.958-1.35,1.286-1.962l1.071-1.834a1.343,1.343,0,0,1,2.337,1.325L96.377,295.5" transform="translate(1046.238 20.736)" fill="#fff"/>
                  <path id="Caminho_145018" data-name="Caminho 145018" d="M86.155,313.162a1.329,1.329,0,0,1,.262-.356c2.459-2.225,10.5-10.271,10.75-20.391a1.343,1.343,0,0,1,1.342-1.31h.033a1.343,1.343,0,0,1,1.31,1.375c-.231,9.4-6.4,17.045-9.945,20.68Z" transform="translate(1017.548 20.697)" fill="#fff"/>
                  <path id="Caminho_145019" data-name="Caminho 145019" d="M1118.165,315.663c-1.214-8.63-27.2-37.329-40.582-34.51-6.892,1.452-7.522,9.9-7.522,9.9s-18.6-39.481-59.871-32.949S946.7,301.378,946.7,301.378s-20.279-11.329-31.189-5.415c-11.677,6.33-6.318,19.7-6.318,19.7Z" transform="translate(-881 18.299)" fill="#5ea05b"/>
                  <path id="Caminho_145020" data-name="Caminho 145020" d="M1043.06,304.14a1.343,1.343,0,0,0,.966-2.275c-3.569-3.7-8.316-4.622-12.5-5.437-3.28-.637-6.111-1.188-7.648-2.883a1.343,1.343,0,0,0-1.989,1.806c2.139,2.356,5.531,3.015,9.124,3.715,3.983.773,8.1,1.575,11.085,4.664a1.335,1.335,0,0,0,.966.411" transform="translate(-928.89 20.839)" fill="#fff"/>
                  <path id="Caminho_145021" data-name="Caminho 145021" d="M1005.452,313.684a1.2,1.2,0,0,1-.01.184h-2.673a45.464,45.464,0,0,1,6.112-30.6,1.343,1.343,0,0,1,2.293,1.4,42.8,42.8,0,0,0-5.722,29.016" transform="translate(-875.205 20.094)" fill="#fff"/>
                  <path id="Caminho_145022" data-name="Caminho 145022" d="M1039.253,313.856c-3.533-3.865-6.136-8.329-8.652-12.679-4.352-7.519-8.109-14.014-15.623-15.732a1.344,1.344,0,0,1,.6-2.62c8.653,1.98,12.877,9.279,17.349,17.007,2.856,4.936,5.816,10.031,10.094,14.024Z" transform="translate(-919.361 20.106)" fill="#fff"/>
                  <path id="Caminho_145023" data-name="Caminho 145023" d="M829.67,323.377c12.758-20.816,8.615-40.283-5.819-51.03s-69.2-33.252-78.154-46.681-27.934-70.551-93.288-77.313c-86.434-8.944-127.128,50.134-127.128,50.134l-8.5,124.89Z" transform="translate(-181.133 10.482)" fill="#7ec172"/>
                  <path id="Caminho_145024" data-name="Caminho 145024" d="M540.022,304.147l-23.243-88.529s57.52-69.334,138.773-68.175c18.354,5.4,43.059,28.214,37.146,60-7.163,38.5-76.1,64.012-80.574,103.85,0,0,27.754-25.067,62.221-19.7,36.155,5.635,146.289,68.3,177.666-13.3,9.108,11.211,10.265,27.674-.4,45.084H551.225Z" transform="translate(-203.068 10.482)" fill="#5ea05b"/>
                  <path id="Caminho_145025" data-name="Caminho 145025" d="M732.717,217.939c1.106,0,2.2-.043,3.281-.135a1.343,1.343,0,1,0-.225-2.676c-20.216,1.7-46.309-14.469-49.538-17.931a1.343,1.343,0,1,0-1.964,1.833c3.626,3.887,27.911,18.909,48.447,18.909" transform="translate(-260.082 13.99)" fill="#fff"/>
                  <path id="Caminho_145026" data-name="Caminho 145026" d="M736.456,270.484a44.581,44.581,0,0,0,7.556-.515,1.343,1.343,0,0,0-.5-2.64c-6.307,1.191-27.915.772-39.217-7.207a1.343,1.343,0,0,0-1.549,2.195c8.961,6.325,23.972,8.168,33.708,8.168" transform="translate(-287.529 18.477)" fill="#fff"/>
                  <path id="Caminho_145027" data-name="Caminho 145027" d="M682.2,233.42c-.789,5.4-1.872,11.682-3.455,18.332-.773,3.329-1.684,6.744-2.71,10.186-1,3.45-2.2,6.9-3.452,10.336-1.294,3.419-2.681,6.807-4.2,10.076s-3.135,6.435-4.854,9.418q-.646,1.117-1.281,2.216l-1.329,2.132c-.86,1.417-1.788,2.752-2.68,4.055-1.8,2.6-3.63,4.971-5.393,7.1-1.782,2.112-3.467,4.012-5.061,5.6-1.538,1.643-3.022,2.934-4.193,4.049-.762.7-1.431,1.256-2,1.728h-5.171a2,2,0,0,1,.722-1.513l.078-.064s.34-.282.978-.808,1.594-1.278,2.746-2.307c1.131-1.054,2.566-2.27,4.057-3.828,1.545-1.5,3.18-3.31,4.917-5.319,1.719-2.026,3.511-4.287,5.274-6.778.876-1.249,1.788-2.525,2.635-3.888q.647-1.014,1.311-2.048l1.265-2.133c1.7-2.872,3.3-5.932,4.823-9.1s2.912-6.456,4.217-9.784c1.264-3.343,2.475-6.712,3.5-10.085,1.046-3.365,1.979-6.712,2.78-9.975,1.633-6.523,2.773-12.709,3.614-18.029.823-5.327,1.33-9.793,1.651-12.925l.463-4.93v-.015a1.343,1.343,0,0,1,2.676.237s-.149,1.807-.408,4.971c-.287,3.165-.748,7.687-1.518,13.09" transform="translate(-156.116 15.208)" fill="#fff"/>
                  <path id="Caminho_145028" data-name="Caminho 145028" d="M669.621,187.5a1.344,1.344,0,0,1,1.9.015l1.113,1.129,1.331,1.507c.484.6,1.046,1.276,1.653,2.052,1.188,1.564,2.609,3.475,4.1,5.75,1.516,2.259,3.128,4.866,4.8,7.759s3.364,6.088,5.076,9.508c1.66,3.444,3.379,7.1,4.935,10.97.824,1.917,1.534,3.919,2.315,5.92.7,2.033,1.474,4.066,2.113,6.164,1.386,4.163,2.517,8.481,3.567,12.818.956,4.357,1.829,8.743,2.359,13.114a125.447,125.447,0,0,1,1.038,12.892c.033,2.1.016,4.168-.008,6.191-.121,2.02-.169,4-.345,5.924-.22,1.917-.35,3.794-.629,5.59-.3,1.792-.534,3.535-.859,5.189-.361,1.648-.707,3.229-1.036,4.732-.384,1.49-.8,2.89-1.169,4.213-.342,1.33-.776,2.541-1.172,3.661s-.751,2.153-1.075,3.084c-.73,1.832-1.356,3.251-1.759,4.228q-.153.366-.272.646h-4.221a2.026,2.026,0,0,1,.16-.733l.05-.116s.213-.5.614-1.423,1.007-2.284,1.723-4.031c.319-.888.673-1.872,1.056-2.943s.819-2.225,1.157-3.5c.362-1.264.777-2.6,1.161-4.029q.493-2.159,1.037-4.535c.328-1.587.568-3.263.873-4.984.286-1.728.426-3.535.658-5.381.187-1.852.251-3.767.389-5.719.04-1.956.075-3.957.064-5.991a121.579,121.579,0,0,0-.891-12.53c-.473-4.259-1.286-8.545-2.179-12.811-.987-4.248-2.051-8.484-3.371-12.578-.607-2.062-1.351-4.065-2.015-6.065-.749-1.971-1.426-3.942-2.217-5.833-1.491-3.818-3.146-7.424-4.746-10.825-1.65-3.376-3.276-6.537-4.9-9.387s-3.167-5.426-4.626-7.647c-1.434-2.239-2.8-4.1-3.929-5.624L671.88,191.9l-1.174-1.36-1.1-1.14-.005-.007a1.343,1.343,0,0,1,.024-1.889" transform="translate(-213.051 13.304)" fill="#fff"/>
                  <path id="Caminho_145029" data-name="Caminho 145029" d="M677.807,228.487a1.341,1.341,0,0,1,1.828.512l0,.006s.213.38.615,1.094a28.577,28.577,0,0,0,1.848,2.829c.878,1.193,2,2.612,3.381,4.19s2.987,3.32,4.808,5.176c7.234,7.468,17.646,16.794,27.462,26.827,2.466,2.5,4.859,5.073,7.188,7.637,2.3,2.6,4.536,5.182,6.568,7.809,2.07,2.592,3.908,5.245,5.6,7.8a69.472,69.472,0,0,1,4.228,7.593l.841,1.806.692,1.784c.216.585.456,1.141.634,1.706s.332,1.125.492,1.66.331,1.049.435,1.567.2,1.014.3,1.493.186.939.273,1.378q.067.673.131,1.283c.069.815.167,1.539.182,2.176-.01.639-.019,1.184-.026,1.625-.013.6-.02.986-.025,1.19h-4.022l0-.167s.012-.4.032-1.154c.011-.376.026-.84.043-1.386-.005-.546-.09-1.178-.138-1.884-.03-.355-.063-.727-.1-1.117q-.109-.585-.23-1.22t-.245-1.325c-.084-.46-.25-.924-.377-1.41s-.277-.986-.421-1.5-.373-1.028-.563-1.565-.4-1.083-.613-1.644l-.762-1.687a65.837,65.837,0,0,0-3.905-7.212c-1.594-2.462-3.329-5.036-5.314-7.582-1.94-2.574-4.1-5.128-6.325-7.705-2.259-2.548-4.585-5.116-7-7.616-9.592-10.046-19.885-19.489-27.134-27.151-1.824-1.9-3.445-3.711-4.85-5.349s-2.564-3.145-3.481-4.423a32.708,32.708,0,0,1-1.986-3.127l-.6-1.1a1.343,1.343,0,0,1,.52-1.814" transform="translate(-260.903 16.233)" fill="#fff"/>
                  <path id="Caminho_145030" data-name="Caminho 145030" d="M638.508,72.752c-13.047-43.008-67.175-69.38-91.815-21.745-14.5,28.027,2.9,56.055-18.363,71.035s-64.769,27.655-57.5,80.217c8.215,59.437,72.687,88.994,123.224,66.2,73.935-33.343,53.956-164.4,44.457-195.71" transform="translate(57.957 1.821)" fill="#26d49e"/>
                  <path id="Caminho_145031" data-name="Caminho 145031" d="M575.518,205.5c45.421,4.832,57.02-44.934,62.394-69.107.919,48-9.414,104.008-54.178,124.2-41.433,18.685-92.226,2.179-113.71-37.127,5.165-49.208,60.072-22.794,105.495-17.961" transform="translate(68.274 9.697)" fill="#09a376"/>
                  <path id="Caminho_145032" data-name="Caminho 145032" d="M943.779,322.887c47.026-52.174-7.112-172.747-103.879-168.455-58.023,2.574-33.691,48.43-40.71,56.854s-29.639,1.31-41.412,21.758c-13.335,23.163-2.807,74.4,30.884,89.843Z" transform="translate(-556.965 10.972)" fill="#7ec172"/>
                  <path id="Caminho_145033" data-name="Caminho 145033" d="M760.4,224.212c26.64,24.139,41.614-2.922,83.728,9.424,46.93,13.756,91.246,83.113,116.484,26.493h0c1.914,21.868-3.208,42.693-16.815,57.789H788.673c-33.691-15.442-44.219-66.68-30.884-89.843a32.955,32.955,0,0,1,2.606-3.863" transform="translate(-556.977 15.941)" fill="#3e7543"/>
                  <path id="Caminho_145034" data-name="Caminho 145034" d="M810.05,213.23a1.326,1.326,0,0,0,.558-.122c10.483-4.8,19.645-17.957,24.176-25.37a1.343,1.343,0,0,0-2.293-1.4c-3.518,5.757-12.8,19.654-23,24.327a1.343,1.343,0,0,0,.56,2.564" transform="translate(-491.503 13.203)" fill="#fff"/>
                  <path id="Caminho_145035" data-name="Caminho 145035" d="M791.66,257.764a1.34,1.34,0,0,0,.426-.07c20.6-6.906,40.944-29,44.588-35.069a1.343,1.343,0,0,0-2.3-1.383c-3.4,5.669-23.5,27.323-43.137,33.906a1.343,1.343,0,0,0,.426,2.616" transform="translate(-473.692 15.684)" fill="#fff"/>
                  <path id="Caminho_145036" data-name="Caminho 145036" d="M812.114,258.863a1.343,1.343,0,1,0,0-2.686c-4.158,0-24.659-7-29.953-16a1.343,1.343,0,1,0-2.316,1.361c5.845,9.942,27.095,17.328,32.269,17.328" transform="translate(-438.87 17.029)" fill="#fff"/>
                  <path id="Caminho_145037" data-name="Caminho 145037" d="M893.781,236.5a1.343,1.343,0,0,0,.25-2.662c-14.75-2.806-30.008-20.86-32.917-24.45a1.343,1.343,0,0,0-2.088,1.691c4.232,5.224,19.226,22.491,34.5,25.4a1.352,1.352,0,0,0,.252.024" transform="translate(-605.223 14.852)" fill="#fff"/>
                  <path id="Caminho_145038" data-name="Caminho 145038" d="M849.8,264.81c-.418,4.513-.968,8.944-1.59,13.223-.664,4.273-1.362,8.4-2.227,12.282q-.318,1.457-.627,2.874-.353,1.407-.7,2.771c-.429,1.824-.959,3.561-1.444,5.236-.992,3.341-2.064,6.367-3.135,9.011-.487,1.338-1.1,2.54-1.6,3.672q-.392.845-.75,1.62l-.784,1.467c-.5.919-.935,1.779-1.344,2.454l-.945,1.489h-4.641a1.981,1.981,0,0,1,.255-.606l0-.005.894-1.38c.292-.45.651-1.006,1.073-1.658.4-.651.769-1.392,1.236-2.225q.342-.623.72-1.313l.718-1.523c.484-1.07,1.072-2.194,1.55-3.474,1.045-2.515,2.1-5.414,3.1-8.642.484-1.618,1.015-3.3,1.448-5.072q.347-1.324.7-2.693.315-1.382.639-2.8c.878-3.786,1.6-7.833,2.292-12.03.651-4.205,1.235-8.568,1.688-13.02.476-4.451.824-8.99,1.1-13.532a346.893,346.893,0,0,0-.641-50.045c-.3-3.4-.673-6.5-1.042-9.239-.394-2.731-.781-5.106-1.186-7.03-.383-1.931-.78-3.409-1.068-4.4-.311-.973-.476-1.491-.476-1.491l-.033-.1a1.341,1.341,0,0,1,2.551-.829s.188.569.541,1.636c.322,1.067.753,2.627,1.17,4.619.437,1.992.856,4.414,1.281,7.2.4,2.784.806,5.926,1.144,9.361a350,350,0,0,1,1.11,50.506c-.237,4.593-.547,9.184-.988,13.694" transform="translate(-530.57 12.576)" fill="#fff"/>
                  <path id="Caminho_145039" data-name="Caminho 145039" d="M844.262,189.146a1.343,1.343,0,0,1,1.409,1.274v.011s.008.132.021.388c0,.282.054.574.1.989a37.139,37.139,0,0,0,.9,4.027c.945,3.5,2.6,8.5,4.694,14.461,4.18,11.936,10.08,27.79,15.2,43.947s9.428,32.664,10.4,45.607a64.137,64.137,0,0,1,.131,8.9,36.361,36.361,0,0,1-1.063,6.961,23.506,23.506,0,0,1-1.617,4.321H869.9a2.015,2.015,0,0,1,.2-.5l.07-.12.664-1.141a19.851,19.851,0,0,0,1.389-3.6,32.455,32.455,0,0,0,1-6.187,60.419,60.419,0,0,0-.042-8.37,139.692,139.692,0,0,0-3.35-21.066c-1.73-7.663-3.991-15.767-6.449-23.817-4.923-16.1-10.654-31.983-14.728-44-2.039-6.01-3.664-11.058-4.61-14.7a39.433,39.433,0,0,1-.921-4.35c-.066-.567-.117-1.029-.117-1.26-.011-.255-.014-.387-.014-.387a1.343,1.343,0,0,1,1.272-1.4" transform="translate(-570.459 13.448)" fill="#fff"/>
                  <path id="Caminho_145040" data-name="Caminho 145040" d="M1021.66,43.666c-12.085-39.84-62.227-64.269-85.049-20.143-13.428,25.962,2.686,51.925-17.01,65.8s-60,25.617-53.268,74.307c7.61,55.058,67.331,82.437,114.146,61.325,68.487-30.886,49.981-152.287,41.182-181.29" transform="translate(-748.165 0)" fill="#26d49e"/>
                  <path id="Caminho_145041" data-name="Caminho 145041" d="M963.309,166.63c42.074,4.477,52.819-41.622,57.8-64.014.852,44.465-8.721,96.344-50.187,115.045-38.381,17.309-85.429,2.018-105.331-34.392,4.783-45.582,55.645-21.115,97.722-16.638" transform="translate(-738.606 7.296)" fill="#09a376"/>
                  <path id="Caminho_145042" data-name="Caminho 145042" d="M939.473,119.823a1.343,1.343,0,0,0,.414-2.621c-8.913-2.88-15.76-19.759-16.782-27.624a1.343,1.343,0,0,0-2.664.346c1.127,8.676,8.515,26.568,18.619,29.833a1.354,1.354,0,0,0,.413.065" transform="translate(-717.007 6.286)" fill="#fff"/>
                  <path id="Caminho_145043" data-name="Caminho 145043" d="M887.193,184.377a1.344,1.344,0,0,0,1.329-1.169c.931-7.1,7.677-13.073,15.486-19.989,10.67-9.448,23.951-21.209,27.494-40.892a1.343,1.343,0,0,0-2.645-.476c-3.377,18.767-15.73,29.706-26.63,39.358-8.213,7.273-15.307,13.554-16.369,21.65a1.342,1.342,0,0,0,1.157,1.506,1.412,1.412,0,0,0,.177.012" transform="translate(-670.674 8.585)" fill="#fff"/>
                  <path id="Caminho_145044" data-name="Caminho 145044" d="M956.264,152.2a1.339,1.339,0,0,0,.347-.046c11.5-3.071,9.547-38.909,9.032-42.133a1.343,1.343,0,0,0-2.653.425c1.183,7.39.911,36.982-7.07,39.113a1.343,1.343,0,0,0,.345,2.64" transform="translate(-779.227 7.742)" fill="#fff"/>
                  <path id="Caminho_145045" data-name="Caminho 145045" d="M983.78,182.354a1.343,1.343,0,0,0,.112-2.681c-10.472-.894-19.964-21.451-19.964-29.134a1.343,1.343,0,0,0-2.686,0c0,8.426,9.943,30.745,22.423,31.809.039,0,.077.005.115.005" transform="translate(-805.027 10.608)" fill="#fff"/>
                  <path id="Caminho_145046" data-name="Caminho 145046" d="M925.686,328.039c-.128-.248-.266-.513-.421-.811-.436-.85-.975-1.9-1.608-3.134-.534-1.265-1.149-2.722-1.837-4.352-.74-1.615-1.307-3.472-2.012-5.47-.335-1-.727-2.036-1.052-3.127l-.958-3.4c-.32-1.172-.694-2.374-1-3.626q-.432-1.88-.89-3.867c-.657-2.64-1.142-5.444-1.685-8.364q-.2-1.1-.41-2.212-.169-1.121-.338-2.265-.339-2.286-.689-4.655c-.438-3.162-.772-6.437-1.158-9.8-.611-6.736-1.16-13.843-1.409-21.2-.328-7.352-.362-14.947-.352-22.658.1-7.709.263-15.537.636-23.352.321-7.817.838-15.62,1.374-23.3.594-7.672,1.218-15.217,1.952-22.506,1.421-14.58,3.073-28.148,4.642-39.757s3.037-21.257,4.112-28C923.7,85.451,924.33,81.6,924.33,81.6a1.343,1.343,0,0,1,2.654.415v.009l-1.569,10.6c-.965,6.746-2.278,16.392-3.65,27.992s-2.805,25.15-3.987,39.695c-.614,7.271-1.113,14.793-1.581,22.435-.41,7.644-.8,15.413-.992,23.183-.246,7.769-.286,15.537-.257,23.179.113,7.639.269,15.155.71,22.4.361,7.256,1.015,14.236,1.72,20.836.432,3.287.811,6.493,1.287,9.57q.379,2.3.746,4.525.183,1.112.364,2.2.219,1.08.434,2.138c.572,2.821,1.084,5.534,1.759,8.058q.469,1.9.916,3.707c.31,1.2.685,2.332,1.009,3.447s.654,2.186.965,3.224.711,1.993,1.041,2.936c.7,1.868,1.256,3.624,1.969,5.1l1.767,4.011,1.516,2.829c.824,1.534,1.262,2.352,1.262,2.352l.149.275.013.025a3.342,3.342,0,0,1,.367,1.3Z" transform="translate(-697.82 5.722)" fill="#fff"/>
                  <path id="Caminho_145047" data-name="Caminho 145047" d="M925.172,103.892a1.341,1.341,0,0,1,1.554,1.091l.114.642c.079.417.182,1.056.294,1.915.247,1.716.531,4.112.9,7.215.727,6.173,1.765,14.992,3.012,25.575,2.583,21.139,6.393,49.289,11.6,77.161.654,3.483,1.3,6.966,2.008,10.424.676,3.463,1.393,6.9,2.126,10.309,1.442,6.821,3,13.495,4.579,19.934q1.24,4.813,2.434,9.451,1.292,4.6,2.523,8.987c.888,2.9,1.705,5.73,2.577,8.442.9,2.7,1.719,5.328,2.6,7.813.9,2.474,1.723,4.865,2.578,7.1q1.322,3.34,2.5,6.326l2.395,5.457c.711,1.7,1.525,3.173,2.173,4.549,1.294,2.761,2.5,4.8,3.282,6.22s1.2,2.168,1.2,2.168l.1.185.019.034a3.31,3.31,0,0,1,.381,1.48h-7.2c-.106-.2-.217-.4-.34-.633-.8-1.514-2.038-3.708-3.336-6.6-.651-1.446-1.476-3.011-2.181-4.78l-2.378-5.694q-1.157-3.083-2.456-6.549c-.838-2.312-1.632-4.769-2.51-7.317-.854-2.556-1.638-5.244-2.506-8.011-.84-2.773-1.618-5.663-2.467-8.619l-2.4-9.149-2.291-9.6c-1.477-6.53-2.932-13.29-4.261-20.183-.678-3.444-1.338-6.918-1.956-10.414-.647-3.491-1.238-7-1.834-10.516-4.734-28.107-8.05-56.388-10.264-77.606-1.016-10.19-1.917-19.21-2.559-25.64-.311-3.077-.561-5.539-.758-7.123-.088-.795-.177-1.418-.252-1.849s-.1-.644-.1-.644l0-.027a1.342,1.342,0,0,1,1.095-1.53" transform="translate(-756.206 7.385)" fill="#fff"/>
                  <path id="Caminho_145048" data-name="Caminho 145048" d="M993.005,239.563c-4.3-10.733-17.962-18.145-29.284-7.386-5.151,4.9.411,14.436-3.617,17.794s-11.079,4.528-12.861,12.592c-4.039,18.294,19.071,25.291,33.675,14.211s14.772-30.507,12.086-37.211" transform="translate(-798.751 16.134)" fill="#09a376"/>
                  <path id="Caminho_145049" data-name="Caminho 145049" d="M965.259,316.287l-1.614-1.7-1.225-1.291c-.407-.443-.78-.929-1.18-1.4-1.573-1.914-3.289-3.887-4.811-6.12-.778-1.1-1.621-2.187-2.376-3.351q-1.109-1.761-2.244-3.56c-.784-1.178-1.451-2.441-2.141-3.7-.674-1.263-1.418-2.494-2.035-3.792-1.236-2.593-2.514-5.167-3.52-7.813-1.134-2.592-1.948-5.26-2.838-7.8-.387-1.291-.723-2.574-1.075-3.822-.171-.626-.341-1.246-.508-1.856q-.2-.932-.391-1.84c-.248-1.211-.525-2.383-.727-3.529q-.249-1.735-.479-3.344a27.565,27.565,0,0,1-.312-3.094c-.068-.988-.131-1.925-.191-2.8,0-1.8.047-3.381.076-4.669.291-2.457.457-3.861.457-3.861a1.343,1.343,0,0,1,2.67.3v.007s-.147,1.405-.4,3.867c0,1.18,0,2.612.006,4.255.07.838.145,1.729.223,2.668a26.163,26.163,0,0,0,.341,2.953q.244,1.538.507,3.2c.211,1.1.5,2.228.753,3.392q.2.872.4,1.767.257.884.519,1.787c.36,1.2.7,2.437,1.094,3.678.9,2.449,1.722,5.018,2.862,7.515,1.01,2.548,2.289,5.023,3.521,7.517.615,1.248,1.358,2.429,2.026,3.642.684,1.2,1.345,2.415,2.123,3.543q1.118,1.719,2.218,3.406c.745,1.114,1.576,2.148,2.34,3.2,1.5,2.135,3.18,4,4.718,5.823.391.449.755.913,1.152,1.331l1.2,1.219,2.265,2.313a26.662,26.662,0,0,0,2.108,1.964Z" transform="translate(-765.338 17.473)" fill="#fff"/>
                  <path id="Caminho_145050" data-name="Caminho 145050" d="M707.081,313.13H1158.16a1.343,1.343,0,0,0,0-2.686H707.081a1.343,1.343,0,1,0,0,2.686" transform="translate(-705.738 22.072)" fill="#d5ae0d"/>
                  <path id="Caminho_145051" data-name="Caminho 145051" d="M1014.654,324.831h73.512a1.343,1.343,0,0,0,0-2.686h-73.512a1.343,1.343,0,1,0,0,2.686" transform="translate(-965.185 22.904)" fill="#d5ae0d"/>
                  <path id="Caminho_145052" data-name="Caminho 145052" d="M1.344,313.13H177.427a1.343,1.343,0,0,0,0-2.686H1.344a1.343,1.343,0,1,0,0,2.686" transform="translate(1030.911 22.072)" fill="#d5ae0d"/>
                </g>
              </g>
            </g>
            <g id="Grupo_15835" data-name="Grupo 15835" transform="translate(-419.077 3419.243)">
              <g id="Grupo_de_máscara_47" data-name="Grupo de máscara 47" transform="translate(-0.286 -0.065)" clip-path="url(#clip-path-3)">
                <g id="Grupo_7393" data-name="Grupo 7393" transform="translate(-430.704 -514.274)">
                  <path id="Caminho_142414" data-name="Caminho 142414" d="M432.71,323.318h871.2V241.28h-869.9Z" transform="translate(67.099 673.53)" fill="#47403d"/>
                  <path id="Caminho_142416" data-name="Caminho 142416" d="M1045.6,368.487v-92.23a488.2,488.2,0,0,0-28.356-110.128c-6.138-15.482-35.052-21.466-35.052-21.466L860.38,136.19V357.745h24.583c13.213,0,60.611,15.536,60.611,54.186V428.4H1042.5a5.453,5.453,0,0,0,5.415-5.49V387.116l-5.018-9.607Z" transform="translate(411.355 586.308)" fill="#d11119"/>
                  <path id="Caminho_142417" data-name="Caminho 142417" d="M1013.987,269.882c-39.258-1.208-78.425-4.191-117.737-3.806,11.317,9.15,20.378,22.216,20.378,39.948v17.2h96.926a5.6,5.6,0,0,0,5.415-5.764V280l-5.018-10.083Z" transform="translate(440.227 694.081)" fill="#6b6769"/>
                  <path id="Caminho_142418" data-name="Caminho 142418" d="M989.542,172.02a19.521,19.521,0,0,0-17.58-16.031l-78.534-6.222a19.259,19.259,0,0,0-14.612,5.088,19.814,19.814,0,0,0-6.326,14.291L870.56,316.99s41.712,20.514,52.343,30.1a78.032,78.032,0,0,1,15.577,19.2h67.849V264.873a20.126,20.126,0,0,0-.325-3.66Z" transform="translate(419.548 597.528)" fill="#d11119"/>
                  <path id="Caminho_142419" data-name="Caminho 142419" d="M974.858,175.521a16.718,16.718,0,0,0-14.44-14.439l-64.744-5.618c-9.223-.787-17.129,7.21-17.255,17.458l-1.318,52.5a13.193,13.193,0,0,0,10.487,13.322l87.432,17.641a9.624,9.624,0,0,0,8.644-2.592,9.933,9.933,0,0,0,2.818-8.68C982.512,221.307,974.858,175.521,974.858,175.521Z" transform="translate(424.811 602.262)" fill="#819ba9"/>
                  <path id="Caminho_142420" data-name="Caminho 142420" d="M979.874,176.517a20.255,20.255,0,0,0-17.634-17.367l-64.762-5.6a18.238,18.238,0,0,0-14.1,4.923,22.1,22.1,0,0,0-6.931,15.957l-1.317,52.5a16.677,16.677,0,0,0,13.284,16.891l87.45,17.623a12.194,12.194,0,0,0,2.563.256,13.087,13.087,0,0,0,10.069-4.724,13.473,13.473,0,0,0,2.927-10.849C987.527,222.321,979.874,176.535,979.874,176.517Zm2.888,76.346a6.153,6.153,0,0,1-5.542,1.647L889.789,236.87a9.615,9.615,0,0,1-7.689-9.754l1.317-52.539a14.957,14.957,0,0,1,4.638-10.852,11.547,11.547,0,0,1,8.827-3.129l64.762,5.6A13.268,13.268,0,0,1,973,177.707s7.653,45.749,11.57,69.539a6.348,6.348,0,0,1-1.8,5.618Z" transform="translate(423.226 600.661)" fill="#6b6769"/>
                  <path id="Caminho_142421" data-name="Caminho 142421" d="M945.75,289.4h28.374l2.78-9.022V242.35H945.75Z" transform="translate(480.073 674.418)" fill="#f0c245"/>
                  <path id="Caminho_142422" data-name="Caminho 142422" d="M892.386,271.54c-25.338-.03-45.9,20.768-45.936,46.457s20.478,46.542,45.816,46.579,45.908-20.756,45.948-46.445A46.811,46.811,0,0,0,924.831,285.2a45.533,45.533,0,0,0-32.445-13.659Z" transform="translate(400.143 698.645)" fill="#4d484a"/>
                  <path id="Caminho_142423" data-name="Caminho 142423" d="M884.6,281.2a28.843,28.843,0,1,0,28.41,28.914,29.027,29.027,0,0,0-8.288-20.433A28.235,28.235,0,0,0,884.6,281.2Z" transform="translate(407.927 706.663)" fill="#6b6769"/>
                  <path id="Caminho_142424" data-name="Caminho 142424" d="M880.642,286.11a19.857,19.857,0,1,0,19.565,19.928,19.981,19.981,0,0,0-5.7-14.086A19.432,19.432,0,0,0,880.642,286.11Z" transform="translate(411.886 710.737)" fill="#fff"/>
                  <path id="Caminho_142425" data-name="Caminho 142425" d="M875.981,291.91a9.133,9.133,0,0,0-8.461,5.729,9.353,9.353,0,0,0,2.017,10.11,9.04,9.04,0,0,0,9.991,1.945,9.387,9.387,0,0,0,2.891-15.137A8.961,8.961,0,0,0,875.981,291.91Z" transform="translate(416.546 715.551)" fill="#4d484a"/>
                  <path id="Caminho_142426" data-name="Caminho 142426" d="M609.042,271.54c-25.331,0-45.869,20.812-45.882,46.494s20.5,46.515,45.834,46.542,45.89-20.763,45.931-46.445a46.831,46.831,0,0,0-13.408-32.946A45.549,45.549,0,0,0,609.042,271.54Z" transform="translate(172.104 698.645)" fill="#4d484a"/>
                  <path id="Caminho_142427" data-name="Caminho 142427" d="M601.29,281.2a28.843,28.843,0,1,0,28.392,28.913,29.027,29.027,0,0,0-8.281-20.426,28.233,28.233,0,0,0-20.11-8.487Z" transform="translate(179.857 706.663)" fill="#6b6769"/>
                  <path id="Caminho_142428" data-name="Caminho 142428" d="M597.322,286.11a19.857,19.857,0,1,0,19.565,19.928,19.979,19.979,0,0,0-5.7-14.086A19.432,19.432,0,0,0,597.322,286.11Z" transform="translate(183.826 710.737)" fill="#fff"/>
                  <path id="Caminho_142429" data-name="Caminho 142429" d="M592.7,291.91a9.13,9.13,0,0,0-8.525,5.665,9.353,9.353,0,0,0,1.959,10.141,9.041,9.041,0,0,0,10,1.986,9.264,9.264,0,0,0,5.588-8.643A9.088,9.088,0,0,0,592.7,291.91Z" transform="translate(188.446 715.551)" fill="#4d484a"/>
                  <rect id="Retângulo_5007" data-name="Retângulo 5007" width="787.846" height="327.364" transform="translate(475.152 631.859)" fill="#d11119"/>
                  <rect id="Retângulo_5008" data-name="Retângulo 5008" width="758.949" height="283.682" transform="translate(489.652 643.881)" fill="#d11119"/>
                  <rect id="Retângulo_5010" data-name="Retângulo 5010" width="787.846" height="34.092" transform="translate(475.152 925.131)" fill="#d11119"/>
                  <path id="Caminho_142434" data-name="Caminho 142434" d="M931.577,271.17c-15.65-13.963-33.934-30.67-33.934-30.67H860.39v36.087a3.635,3.635,0,0,0,3.61,3.66h35.937c32.254,2.269,38.373,35.026,38.373,35.026v18.556a10.724,10.724,0,0,0,10.649,10.8h10.487s.56-10.724,0-27.669S949.933,287.549,931.577,271.17Z" transform="translate(411.363 672.883)" fill="#6b6769"/>
                  <rect id="Retângulo_5011" data-name="Retângulo 5011" width="115.012" height="43.645" transform="translate(509.411 969.106)" fill="#47403d"/>
                  <rect id="Retângulo_5012" data-name="Retângulo 5012" width="37.164" height="45.987" transform="translate(1202.912 970.277)" fill="#47403d"/>
                  <rect id="Retângulo_5013" data-name="Retângulo 5013" width="4.025" height="42.895" transform="translate(581.608 916.329)" fill="#6b6769"/>
                  <rect id="Retângulo_5014" data-name="Retângulo 5014" width="7.382" height="8.509" transform="translate(579.93 922.459)" fill="#6b6769"/>
                  <rect id="Retângulo_5015" data-name="Retângulo 5015" width="4.025" height="42.895" transform="translate(525.42 916.329)" fill="#6b6769"/>
                  <rect id="Retângulo_5016" data-name="Retângulo 5016" width="7.382" height="8.509" transform="translate(523.742 922.459)" fill="#6b6769"/>
                  <rect id="Retângulo_5017" data-name="Retângulo 5017" width="4.025" height="42.895" transform="translate(637.797 916.329)" fill="#6b6769"/>
                  <rect id="Retângulo_5018" data-name="Retângulo 5018" width="7.382" height="8.509" transform="translate(636.118 922.459)" fill="#6b6769"/>
                  <rect id="Retângulo_5019" data-name="Retângulo 5019" width="4.025" height="42.895" transform="translate(694.003 916.329)" fill="#6b6769"/>
                  <rect id="Retângulo_5020" data-name="Retângulo 5020" width="7.382" height="8.509" transform="translate(692.324 922.459)" fill="#6b6769"/>
                  <rect id="Retângulo_5021" data-name="Retângulo 5021" width="4.025" height="42.895" transform="translate(750.192 916.329)" fill="#6b6769"/>
                  <rect id="Retângulo_5022" data-name="Retângulo 5022" width="7.382" height="8.509" transform="translate(748.512 922.459)" fill="#6b6769"/>
                  <rect id="Retângulo_5023" data-name="Retângulo 5023" width="4.025" height="42.895" transform="translate(806.38 916.329)" fill="#6b6769"/>
                  <rect id="Retângulo_5024" data-name="Retângulo 5024" width="7.382" height="8.509" transform="translate(804.702 922.459)" fill="#6b6769"/>
                  <rect id="Retângulo_5025" data-name="Retângulo 5025" width="4.025" height="42.895" transform="translate(862.586 916.329)" fill="#6b6769"/>
                  <rect id="Retângulo_5026" data-name="Retângulo 5026" width="7.382" height="8.509" transform="translate(860.907 922.459)" fill="#6b6769"/>
                  <rect id="Retângulo_5027" data-name="Retângulo 5027" width="4.025" height="42.895" transform="translate(918.775 916.329)" fill="#6b6769"/>
                  <rect id="Retângulo_5028" data-name="Retângulo 5028" width="7.382" height="8.509" transform="translate(917.096 922.459)" fill="#6b6769"/>
                  <rect id="Retângulo_5029" data-name="Retângulo 5029" width="4.025" height="42.895" transform="translate(974.963 916.329)" fill="#6b6769"/>
                  <rect id="Retângulo_5030" data-name="Retângulo 5030" width="7.382" height="8.509" transform="translate(973.284 922.459)" fill="#6b6769"/>
                  <rect id="Retângulo_5033" data-name="Retângulo 5033" width="4.025" height="42.895" transform="translate(1087.358 916.329)" fill="#6b6769"/>
                  <rect id="Retângulo_5034" data-name="Retângulo 5034" width="7.382" height="8.509" transform="translate(1085.679 922.459)" fill="#6b6769"/>
                  <rect id="Retângulo_5035" data-name="Retângulo 5035" width="4.025" height="42.895" transform="translate(1143.546 916.329)" fill="#6b6769"/>
                  <rect id="Retângulo_5036" data-name="Retângulo 5036" width="7.382" height="8.509" transform="translate(1141.867 922.459)" fill="#6b6769"/>
                  <rect id="Retângulo_5037" data-name="Retângulo 5037" width="4.025" height="42.895" transform="translate(1199.752 916.329)" fill="#6b6769"/>
                  <rect id="Retângulo_5038" data-name="Retângulo 5038" width="7.382" height="8.509" transform="translate(1198.073 922.459)" fill="#6b6769"/>
                  <path id="Caminho_142481" data-name="Caminho 142481" d="M953.267,178.3h-5.884a4.162,4.162,0,0,0-4.133,4.191v41.156a4.2,4.2,0,0,0,1.205,2.969,4.086,4.086,0,0,0,2.928,1.222h9.151a4.085,4.085,0,0,0,2.928-1.222,4.2,4.2,0,0,0,1.206-2.969L957.4,182.491a4.18,4.18,0,0,0-4.133-4.191Z" transform="translate(478.062 621.259)" fill="#6b6769"/>
                  <path id="Caminho_142482" data-name="Caminho 142482" d="M949.869,166.549l-17.219-.329v3.532l17.219.329a5.015,5.015,0,0,1,4.874,4.831l2.888,64.744a5.074,5.074,0,0,1-1.362,3.725,4.932,4.932,0,0,1-3.6,1.563h-18.32v3.532h18.248a8.43,8.43,0,0,0,6.113-2.667,8.671,8.671,0,0,0,2.334-6.318l-2.888-64.744A8.522,8.522,0,0,0,949.869,166.549Z" transform="translate(469.529 611.232)" fill="#6b6769"/>
                  <g id="Grupo_7392" data-name="Grupo 7392" transform="translate(1028.312 916.329)">
                    <rect id="Retângulo_5215" data-name="Retângulo 5215" width="4.025" height="42.895" transform="translate(1.679)" fill="#6b6769"/>
                    <rect id="Retângulo_5216" data-name="Retângulo 5216" width="7.382" height="8.509" transform="translate(0 6.13)" fill="#6b6769"/>
                  </g>
                </g>
              </g>
              <g id="Grupo_de_máscara_7396" data-name="Grupo de máscara 7396" transform="translate(911.631 360.844)" clip-path="url(#clip-path-6)">
                <g id="Grupo_2" data-name="Grupo 2" transform="translate(4.092 3.473)">
                  <path id="Caminho_145768" data-name="Caminho 145768" d="M90.3,64.281H86.4l-2.1,8.093,1.673,0c2.4,0,4.586.176,3.838,3.049-.828,3.183-3.546,3.361-6.085,3.361l-13.583.012L65.71,95.842h9.8l2.482-9.548h5.789c7.3,0,13.4-3.58,15.389-11.227,1.171-4.51-.225-10.787-8.865-10.787m105.707,7.8a1.091,1.091,0,0,0-.95-.44c-.413,0-1.036.188-1.165.682-.312,1.2,2.957.43,2.354,2.747a3.064,3.064,0,0,1-3.135,2.176,2.473,2.473,0,0,1-2.023-.832l1.34-1.139a1.224,1.224,0,0,0,1.118.626c.481,0,1.075-.223,1.2-.691.317-1.213-2.977-.56-2.4-2.765a3.113,3.113,0,0,1,3.1-2.149,2.392,2.392,0,0,1,1.863.691Zm-5.677-1.617H191.8l-1.718,6.615h-1.467Zm-4.976,0h1.468l-1.37,5.269h2.719l-.349,1.346h-4.188ZM179.3,75.9a2.753,2.753,0,0,0,2.623-2.131c.32-1.231-.264-2.13-1.516-2.13a2.756,2.756,0,0,0-2.624,2.13c-.32,1.235.265,2.131,1.517,2.131m1.457-5.6c2.079,0,3.242,1.355,2.691,3.474a4.611,4.611,0,0,1-4.5,3.476c-2.08,0-3.243-1.354-2.691-3.476a4.613,4.613,0,0,1,4.5-3.474m-8.468,2.971h.978a1.149,1.149,0,0,0,1.241-.795c.178-.683-.494-.774-1.058-.774H172.7Zm-.739-2.8h2.475c1.382,0,2.418.438,2.008,2.008a2.706,2.706,0,0,1-2.992,2.028h-1.072l-.671,2.578h-1.468Zm-4.106-1.821h1.92l-1.978,1.346h-1.243Zm-1.9,7.258a2.752,2.752,0,0,0,2.623-2.131c.321-1.231-.265-2.13-1.516-2.13a2.756,2.756,0,0,0-2.624,2.13c-.32,1.235.265,2.131,1.517,2.131M167,70.3c2.081,0,3.243,1.355,2.692,3.474a4.61,4.61,0,0,1-4.5,3.476c-2.08,0-3.243-1.354-2.692-3.476A4.613,4.613,0,0,1,167,70.3m-8.62,2.906h.867c.536,0,1.237-.02,1.424-.739.172-.664-.4-.765-.94-.765h-.96Zm-.756-2.739H160.2c1.363,0,2.392.468,1.99,2.009a2.375,2.375,0,0,1-1.911,1.813l.968,2.793h-1.76l-.7-2.643h-.727l-.687,2.643h-1.467Zm-4.445,1.291h-1.9l.335-1.29h5.271l-.335,1.29h-1.9l-1.384,5.324H151.8Zm-6.824-1.291h4.527l-.35,1.346h-3.057l-.321,1.234h2.889l-.35,1.345h-2.89l-.35,1.345h3.228l-.349,1.346h-4.695Zm-5.242,2.8h.978a1.151,1.151,0,0,0,1.242-.795c.176-.683-.5-.774-1.059-.774h-.753Zm-.74-2.8h2.474c1.383,0,2.418.438,2.01,2.008a2.707,2.707,0,0,1-2.993,2.028h-1.072l-.671,2.578h-1.468Z" transform="translate(-55.685 -55.061)" fill="#fff"/>
                  <path id="Caminho_145769" data-name="Caminho 145769" d="M61.931,55.022l14.16,0,2.1-8.091H61.808A14.759,14.759,0,0,0,47.336,57.718c-1.988,7.648,2.248,11.228,9.55,11.228l15.576.033,1.444-5.55,1.351-5.2H65.626l-.832,3.2-3.949,0c-2.539,0-5.165-.177-4.337-3.359.747-2.873,3.02-3.05,5.424-3.05m63.428,12.759A2.771,2.771,0,0,0,128,65.639c.322-1.239-.268-2.141-1.526-2.141a2.769,2.769,0,0,0-2.637,2.141c-.323,1.241.266,2.141,1.524,2.141m1.465-5.633c2.089,0,3.259,1.362,2.706,3.492a4.639,4.639,0,0,1-4.525,3.494c-2.089,0-3.257-1.362-2.7-3.494a4.634,4.634,0,0,1,4.522-3.492m-8.512,2.985h.984a1.159,1.159,0,0,0,1.248-.8c.175-.685-.5-.78-1.065-.78h-.758Zm-.743-2.818h2.487c1.39,0,2.43.442,2.021,2.021a2.723,2.723,0,0,1-3.01,2.037h-1.077l-.674,2.592H115.84Zm-2.42,4.085a3.521,3.521,0,0,1-3.531,2.734c-1.863,0-2.525-1.166-2.116-2.734l1.061-4.084h1.476l-1.046,4.03c-.213.816.193,1.437.977,1.437a1.88,1.88,0,0,0,1.719-1.437l1.046-4.03h1.476ZM105.2,65.067h.871c.539,0,1.243-.018,1.43-.742.174-.666-.4-.77-.942-.77h-.965Zm-.762-2.752h2.594c1.372,0,2.4.469,2,2.02a2.391,2.391,0,0,1-1.921,1.821l.972,2.809h-1.767l-.709-2.657h-.729l-.692,2.657h-1.476Zm-2.9,6.179a7.1,7.1,0,0,1-2.977.639c-2.09,0-3.26-1.361-2.705-3.494a4.633,4.633,0,0,1,4.522-3.492,3.043,3.043,0,0,1,2.445.854l-1.332,1.128a1.6,1.6,0,0,0-1.465-.631,2.77,2.77,0,0,0-2.638,2.141c-.323,1.241.266,2.141,1.526,2.141a3.471,3.471,0,0,0,1.475-.328l.28-1.079h-1.2l.351-1.353h2.621Z" transform="translate(-46.846 -46.933)" fill="#fff"/>
                  <path id="Caminho_145770" data-name="Caminho 145770" d="M139.217,95.88h.468l.217,1.8h.006l.97-1.8h.508l-1.3,2.317h-.559Zm90.3,1.421c0,.3.154.572.492.572.535,0,.832-.638.832-1.1a.5.5,0,0,0-.5-.568c-.545,0-.826.627-.826,1.095m1.812-.477a1.542,1.542,0,0,1-.391,1.026,1.294,1.294,0,0,1-.99.388.891.891,0,0,1-.919-.963,1.54,1.54,0,0,1,.367-1,1.231,1.231,0,0,1,.96-.431.887.887,0,0,1,.973.982m-3.722-.5a1.118,1.118,0,0,0-.485-.119c-.167,0-.391.066-.391.266,0,.371.8.348.8.992,0,.568-.448.774-.96.774a2.014,2.014,0,0,1-.665-.13l.121-.4a1.4,1.4,0,0,0,.572.16c.224,0,.445-.114.445-.362,0-.418-.8-.352-.8-.969,0-.489.421-.7.869-.7a1.651,1.651,0,0,1,.6.1Zm-2.929,0a1.124,1.124,0,0,0-.485-.119c-.167,0-.391.066-.391.266,0,.371.8.348.8.992,0,.568-.448.774-.959.774a2.015,2.015,0,0,1-.666-.13l.121-.4a1.389,1.389,0,0,0,.571.16c.224,0,.444-.114.444-.362,0-.418-.8-.352-.8-.969,0-.489.421-.7.87-.7a1.657,1.657,0,0,1,.605.1Zm-3.19-.445h.488l-.491,2.317h-.488Zm-4.176,0h.773l.157,1.671h.006l.919-1.671h.779l-.5,2.317h-.5l.441-1.918h-.005L218.327,98.2h-.448l-.187-1.918h-.006l-.428,1.918h-.445ZM213.756,97.3c0,.3.154.572.492.572.534,0,.832-.638.832-1.1a.5.5,0,0,0-.5-.568c-.544,0-.826.627-.826,1.095m1.813-.477a1.542,1.542,0,0,1-.392,1.026,1.294,1.294,0,0,1-.99.388.891.891,0,0,1-.919-.963,1.54,1.54,0,0,1,.368-1,1.23,1.23,0,0,1,.96-.431.887.887,0,0,1,.973.982m-4.818.046h.17c.251,0,.556-.076.556-.382,0-.242-.212-.242-.4-.242h-.193Zm-.268-.99h.552c.431,0,.93-.005.93.55a.619.619,0,0,1-.682.616v.007a.248.248,0,0,1,.238.212l.224.933h-.492l-.114-.545c-.054-.246-.04-.418-.294-.418h-.177l-.2.963h-.469ZM207.8,96.953h.167c.257,0,.522-.133.522-.421,0-.235-.191-.285-.392-.285h-.147Zm-.268,1.245h-.468l.495-2.317h.395c.431,0,1.023.024,1.023.6a.872.872,0,0,1-.986.837h-.271Zm-4.166-2.317h.772l.157,1.671h.006l.92-1.671H206l-.5,2.317h-.5l.441-1.918h-.007L204.387,98.2h-.449l-.187-1.918h-.007l-.427,1.918h-.445ZM199.815,97.3c0,.3.154.572.492.572.535,0,.833-.638.833-1.1a.5.5,0,0,0-.5-.568c-.545,0-.826.627-.826,1.095m1.812-.477a1.546,1.546,0,0,1-.39,1.026,1.3,1.3,0,0,1-.99.388.892.892,0,0,1-.92-.963,1.54,1.54,0,0,1,.368-1,1.23,1.23,0,0,1,.96-.431.886.886,0,0,1,.973.982m-3.507-.481a.948.948,0,0,0-.536-.137.873.873,0,0,0-.882.933.684.684,0,0,0,.666.734.936.936,0,0,0,.491-.144l-.073.445a2.009,2.009,0,0,1-.529.063.987.987,0,0,1-1.043-1.1,1.25,1.25,0,0,1,1.338-1.3,1.879,1.879,0,0,1,.685.112Zm-6.424.527h.171c.251,0,.555-.076.555-.382,0-.242-.212-.242-.4-.242h-.194Zm-.268-.99h.552c.431,0,.93-.005.93.55a.619.619,0,0,1-.682.616v.007a.248.248,0,0,1,.238.212l.223.933H192.2l-.114-.545c-.054-.246-.04-.418-.294-.418h-.178l-.2.963h-.469ZM187.917,97.3c0,.3.154.572.492.572.535,0,.832-.638.832-1.1a.5.5,0,0,0-.5-.568c-.545,0-.826.627-.826,1.095m1.812-.477a1.545,1.545,0,0,1-.391,1.026,1.3,1.3,0,0,1-.99.388.891.891,0,0,1-.919-.963,1.54,1.54,0,0,1,.368-1,1.229,1.229,0,0,1,.959-.431.887.887,0,0,1,.974.982m-3.983-.943h.488l-.492,2.317h-.487ZM182.6,97.3h.722l-.147-1.009h-.014Zm.391-1.421h.518l.426,2.317h-.468l-.081-.531h-.993l-.3.531h-.518Zm-4.9,0h.773l.157,1.671h.007l.919-1.671h.779l-.5,2.317h-.5l.443-1.918h-.007L179.106,98.2h-.448l-.187-1.918h-.006l-.428,1.918h-.445ZM172.535,97.3c0,.3.154.572.492.572.535,0,.832-.638.832-1.1a.5.5,0,0,0-.5-.568c-.545,0-.826.627-.826,1.095m1.811-.477a1.538,1.538,0,0,1-.39,1.026,1.293,1.293,0,0,1-.99.388.891.891,0,0,1-.919-.963,1.54,1.54,0,0,1,.367-1,1.232,1.232,0,0,1,.96-.431.886.886,0,0,1,.972.982m-3.72-.5a1.121,1.121,0,0,0-.485-.119c-.168,0-.391.066-.391.266,0,.371.8.348.8.992,0,.568-.449.774-.96.774a2.022,2.022,0,0,1-.666-.13l.121-.4a1.4,1.4,0,0,0,.572.16c.224,0,.444-.114.444-.362,0-.418-.8-.352-.8-.969,0-.489.421-.7.87-.7a1.646,1.646,0,0,1,.6.1Zm-2.93,0a1.116,1.116,0,0,0-.485-.119c-.167,0-.391.066-.391.266,0,.371.8.348.8.992,0,.568-.448.774-.959.774a2.02,2.02,0,0,1-.666-.13l.121-.4a1.4,1.4,0,0,0,.572.16c.223,0,.445-.114.445-.362,0-.418-.8-.352-.8-.969,0-.489.421-.7.869-.7a1.659,1.659,0,0,1,.605.1ZM163,97.3c0,.3.153.572.492.572.534,0,.832-.638.832-1.1a.5.5,0,0,0-.5-.568c-.545,0-.826.627-.826,1.095m1.812-.477a1.544,1.544,0,0,1-.391,1.026,1.3,1.3,0,0,1-.99.388.891.891,0,0,1-.919-.963,1.54,1.54,0,0,1,.368-1,1.23,1.23,0,0,1,.96-.431.886.886,0,0,1,.973.982m-5.43-.943h.592l.5,1.76h.007l.381-1.76h.441l-.5,2.317h-.6l-.488-1.775H159.7l-.371,1.775h-.447Zm-4.235-.617h.444l-.428.485h-.288Zm-.682.617h1.374l-.071.366h-.913l-.12.571h.816l-.073.366h-.82l-.137.649h.923l-.08.365h-1.391Zm-4.819-.132.432-.485h.384l.251.485h-.3l-.166-.308-.268.308Zm-.11.132h1.374l-.07.366h-.913l-.121.571h.816l-.073.366h-.819l-.137.65h.922l-.08.366h-1.391Zm-1.572.462a.947.947,0,0,0-.535-.137.873.873,0,0,0-.883.933.684.684,0,0,0,.665.734.94.94,0,0,0,.492-.144l-.074.445a2.008,2.008,0,0,1-.528.063.988.988,0,0,1-1.043-1.1,1.25,1.25,0,0,1,1.338-1.3,1.882,1.882,0,0,1,.686.112Zm-5.089.958c0,.3.153.572.491.572.535,0,.832-.638.832-1.1a.5.5,0,0,0-.5-.568c-.545,0-.825.627-.825,1.095m1.812-.477a1.539,1.539,0,0,1-.391,1.026,1.294,1.294,0,0,1-.99.388.891.891,0,0,1-.919-.963,1.54,1.54,0,0,1,.368-1,1.23,1.23,0,0,1,.96-.431.887.887,0,0,1,.973.982" transform="translate(-90.125 -69.578)" fill="#fff"/>
                </g>
              </g>
              <g id="Grupo_2-2" data-name="Grupo 2" transform="translate(344.504 235.341)">
                <path id="Caminho_145450" data-name="Caminho 145450" d="M746.715,666.21h-8.039l-4.308,16.69h3.446c4.954,0,9.478.362,7.91,6.29-1.723,6.557-7.307,6.893-12.545,6.893H705.185L696,731.28h20.2l5.118-19.688h11.933c15.052,0,27.624-7.375,31.725-23.143,2.413-9.3-.465-22.238-18.275-22.238M964.61,682.3a2.249,2.249,0,0,0-1.956-.913c-.862,0-2.137.388-2.4,1.413-.646,2.481,6.092.862,4.851,5.661-.793,3.042-3.627,4.489-6.462,4.489a5.171,5.171,0,0,1-4.17-1.723l2.766-2.352a2.524,2.524,0,0,0,2.3,1.292c.991,0,2.214-.457,2.464-1.422.655-2.5-6.135-1.155-4.954-5.7.758-2.9,3.688-4.429,6.385-4.429a4.937,4.937,0,0,1,3.843,1.422Zm-11.684-3.343h3.024l-3.541,13.631h-3.024Zm-10.262,0H945.7l-2.835,10.856h5.592l-.724,2.774h-8.616Zm-12.485,11.2a5.678,5.678,0,0,0,5.4-4.394c.664-2.542-.543-4.394-3.119-4.394a5.67,5.67,0,0,0-5.411,4.394c-.663,2.585.543,4.394,3.128,4.394m3.007-11.554c4.308,0,6.677,2.792,5.54,7.16a9.478,9.478,0,0,1-9.228,7.177c-4.308,0-6.686-2.783-5.549-7.16a9.478,9.478,0,0,1,9.28-7.16m-17.517,6.117h2.016a2.369,2.369,0,0,0,2.585-1.637c.37-1.4-1.017-1.594-2.18-1.594h-1.56Zm-1.525-5.773H919.3c2.843,0,4.98.862,4.136,4.136s-3.274,4.179-6.169,4.179h-2.214l-1.379,5.316h-3.024Zm-8.461-3.757h3.955l-4.075,2.774h-2.585Zm-3.9,14.949a5.687,5.687,0,0,0,5.411-4.394c.663-2.542-.543-4.394-3.128-4.394a5.669,5.669,0,0,0-5.411,4.394c-.655,2.585.551,4.394,3.128,4.394m3.007-11.554c4.308,0,6.678,2.792,5.549,7.16a9.478,9.478,0,0,1-9.271,7.16c-4.308,0-6.686-2.783-5.549-7.16a9.478,9.478,0,0,1,9.271-7.16m-17.767,5.988h1.784c1.1,0,2.585,0,2.938-1.525s-.862-1.577-1.939-1.577h-1.982Zm-1.56-5.635h5.316c2.809,0,4.928.965,4.1,4.136a4.894,4.894,0,0,1-3.938,3.739l1.99,5.756h-3.627l-1.448-5.445h-1.482L885,692.584H881.98Zm-9.168,2.671h-3.92l.689-2.662h10.874l-.689,2.662h-3.929l-2.852,10.969h-3.016Zm-14.044-2.671h9.331l-.715,2.774H864.6l-.664,2.542h5.954l-.706,2.783h-5.962l-.715,2.766h6.652l-.724,2.774h-9.7Zm-10.8,5.773H853.5a2.378,2.378,0,0,0,2.585-1.637c.362-1.4-1.025-1.594-2.188-1.594h-1.551Zm-1.534-5.773h5.1c2.852,0,4.989.862,4.144,4.136s-3.274,4.179-6.169,4.179h-2.206l-1.379,5.316h-3.033Z" transform="translate(-675.353 -647.207)" fill="#fff"/>
                <path id="Caminho_145451" data-name="Caminho 145451" d="M703.135,660.832h29.183l4.308-16.672h-33.75a30.415,30.415,0,0,0-29.829,22.264c-4.1,15.768,4.635,23.143,19.688,23.143l32.1.069,2.981-11.442,2.774-10.744H710.778l-1.723,6.6h-8.142c-5.239,0-10.65-.362-8.944-6.893,1.542-5.919,6.229-6.29,11.2-6.29M833.886,687.1a5.7,5.7,0,0,0,5.437-4.411c.663-2.585-.551-4.411-3.145-4.411a5.713,5.713,0,0,0-5.437,4.411c-.664,2.585.551,4.42,3.145,4.42M836.91,675.5c4.308,0,6.721,2.809,5.575,7.195a9.564,9.564,0,0,1-9.357,7.229c-4.308,0-6.712-2.809-5.575-7.2a9.547,9.547,0,0,1,9.323-7.195m-17.534,6.152h2.033a2.4,2.4,0,0,0,2.585-1.646c.362-1.413-1.034-1.6-2.2-1.6H820.2Zm-1.508-5.773H823c2.861,0,5.006.862,4.162,4.162s-3.3,4.2-6.2,4.2h-2.214l-1.4,5.333H814.31Zm-5,8.418a7.246,7.246,0,0,1-7.272,5.635c-3.843,0-5.17-2.4-4.368-5.635l2.188-8.418h3.033l-2.154,8.306c-.439,1.68.4,2.964,2.016,2.964a3.9,3.9,0,0,0,3.584-3l2.154-8.306h3.016Zm-20.515-2.749h1.8c1.111,0,2.585,0,2.947-1.525s-.862-1.585-1.947-1.585h-1.99Zm-1.568-5.669h5.325c2.826,0,4.954.965,4.119,4.162a4.929,4.929,0,0,1-3.964,3.757l2.008,5.79H794.6l-1.465-5.48h-1.5l-1.43,5.48h-3.033Zm-5.971,12.735a14.648,14.648,0,0,1-6.135,1.318c-4.308,0-6.721-2.809-5.575-7.2a9.538,9.538,0,0,1,9.314-7.195c2.18,0,3.989.483,5.04,1.723l-2.74,2.326a3.308,3.308,0,0,0-3.024-1.3,5.712,5.712,0,0,0-5.437,4.411c-.664,2.585.551,4.42,3.145,4.42a7.16,7.16,0,0,0,3.042-.681l.577-2.223h-2.473l.724-2.792h5.4Z" transform="translate(-672.037 -644.155)" fill="#fff"/>
                <path id="Caminho_145452" data-name="Caminho 145452" d="M789.49,706.885h.965l.448,3.714h0l2.008-3.714h1.043l-2.688,4.773h-1.146Zm186.11,2.93c0,.62.319,1.172,1.008,1.172,1.1,0,1.723-1.31,1.723-2.257a1.043,1.043,0,0,0-.862-1.163h-.138c-1.12,0-1.723,1.292-1.723,2.257m3.731-.982a3.17,3.17,0,0,1-.8,2.111,2.663,2.663,0,0,1-2.042.8,1.844,1.844,0,0,1-1.9-1.775,1.644,1.644,0,0,1,0-.207,3.188,3.188,0,0,1,.758-2.068,2.533,2.533,0,0,1,1.982-.862,1.835,1.835,0,0,1,2.008,1.628,2.033,2.033,0,0,1,0,.4m-7.668-1.034a2.341,2.341,0,0,0-1-.241c-.345,0-.8.138-.8.543,0,.767,1.637.724,1.637,2.051,0,1.172-.922,1.594-1.982,1.594a4.117,4.117,0,0,1-1.37-.267l.25-.819a2.826,2.826,0,0,0,1.172.336c.465,0,.922-.233.922-.75,0-.862-1.637-.724-1.637-2,0-1.008.862-1.439,1.792-1.439a3.386,3.386,0,0,1,1.241.207Zm-6.031,0a2.37,2.37,0,0,0-1-.241c-.345,0-.81.138-.81.543,0,.767,1.637.724,1.637,2.051,0,1.172-.922,1.594-1.982,1.594a4.117,4.117,0,0,1-1.37-.267l.25-.819a2.825,2.825,0,0,0,1.172.336c.465,0,.922-.233.922-.75,0-.862-1.637-.724-1.637-2,0-1.008.862-1.439,1.792-1.439a3.447,3.447,0,0,1,1.249.207Zm-6.583-.913h1.008l-1.008,4.773h-1.008Zm-8.616,0h1.585l.327,3.446h0l1.9-3.446h1.611l-1.025,4.773H953.81l.913-3.955h0l-2.18,3.955h-.922l-.388-3.955h0l-.862,3.955h-.913Zm-7.324,2.93a1.043,1.043,0,0,0,1.017,1.18c1.1,0,1.723-1.318,1.723-2.266A1.034,1.034,0,0,0,945,707.6h-.138c-1.12,0-1.723,1.292-1.723,2.257m3.739-.982a3.178,3.178,0,0,1-.81,2.111,2.662,2.662,0,0,1-2.042.8,1.844,1.844,0,0,1-1.9-1.775,1.672,1.672,0,0,1,0-.207,3.187,3.187,0,0,1,.758-2.068,2.533,2.533,0,0,1,1.982-.862,1.826,1.826,0,0,1,2.008,1.628,3.024,3.024,0,0,1,0,.4M936.93,709h.353c.517,0,1.146-.155,1.146-.793,0-.491-.439-.491-.862-.491h-.3Zm-.551-2.042h1.137c.862,0,1.913,0,1.913,1.129a1.284,1.284,0,0,1-1.275,1.284h-.129a.5.5,0,0,1,.491.431l.457,1.93h-1.008l-.233-1.12c-.112-.508-.086-.862-.6-.862h-.37l-.422,1.982h-.965Zm-5.532,2.214h.345c.534,0,1.077-.276,1.077-.862s-.4-.595-.81-.595h-.3Zm-.551,2.585h-.965l1.025-4.773h.879c.862,0,2.111.052,2.111,1.241a1.792,1.792,0,0,1-1.861,1.723h-.732Zm-8.616-4.773h1.594l.327,3.446h0l1.9-3.446h1.6l-1.025,4.773h-.956l.948-4.084h0l-2.18,3.955h-.922l-.388-3.955h0l-.862,3.955H920.8Zm-7.324,2.93a1.034,1.034,0,0,0,1.017,1.172c1.1,0,1.723-1.31,1.723-2.257a1.034,1.034,0,0,0-.862-1.163H916.1c-1.12,0-1.723,1.292-1.723,2.257m3.74-.982a3.171,3.171,0,0,1-.8,2.111,2.671,2.671,0,0,1-2.042.8,1.844,1.844,0,0,1-1.9-1.775,1.645,1.645,0,0,1,0-.207,3.188,3.188,0,0,1,.758-2.068,2.534,2.534,0,0,1,1.982-.862,1.827,1.827,0,0,1,2,1.629,1.522,1.522,0,0,1,0,.4m-7.229-.991a1.921,1.921,0,0,0-1.1-.284,1.8,1.8,0,0,0-1.827,1.775.857.857,0,0,0,0,.146,1.4,1.4,0,0,0,1.3,1.508h.069a1.972,1.972,0,0,0,1.008-.3l-.146.922a4.233,4.233,0,0,1-1.094.129,2.042,2.042,0,0,1-2.163-1.9,2.624,2.624,0,0,1,0-.37,2.585,2.585,0,0,1,2.482-2.671h.276a3.931,3.931,0,0,1,1.413.233Zm-13.243,1.086h.353c.517,0,1.146-.155,1.146-.793,0-.5-.439-.5-.862-.5h-.4Zm-.551-2.042h1.137c.862,0,1.913,0,1.913,1.129a1.284,1.284,0,0,1-1.275,1.284h-.129a.517.517,0,0,1,.491.439l.457,1.93h-1.008l-.233-1.129c-.112-.5-.086-.862-.6-.862h-.37l-.414,1.99h-.974Zm-7.238,2.93a1.043,1.043,0,0,0,1.017,1.18c1.094,0,1.723-1.318,1.723-2.266a1.042,1.042,0,0,0-.862-1.163H891.6c-1.12,0-1.723,1.292-1.723,2.258m3.739-.982a3.223,3.223,0,0,1-.81,2.111,2.663,2.663,0,0,1-2.042.8,1.844,1.844,0,0,1-1.9-1.775,1.647,1.647,0,0,1,0-.207,3.187,3.187,0,0,1,.758-2.068,2.534,2.534,0,0,1,1.982-.862,1.827,1.827,0,0,1,2.008,1.628,3.036,3.036,0,0,1,0,.4m-8.211-1.947h1.034l-1.017,4.773h-1.008Zm-6.5,2.93h1.5l-.3-2.076h0Zm.81-2.93h1.06l.862,4.773h-.965l-.164-1.094h-2.051l-.612,1.094h-1.068Zm-10.107,0H871.2l.319,3.446h0l1.9-3.446h1.6l-1.025,4.773h-1.025l.913-3.955h0l-2.18,3.955h-.931l-.379-3.955h0l-.862,3.955h-.93Zm-11.442,2.93c0,.62.31,1.18,1.008,1.18,1.1,0,1.723-1.318,1.723-2.266a1.034,1.034,0,0,0-.862-1.163h-.138c-1.12,0-1.723,1.292-1.723,2.257m3.731-.982a3.171,3.171,0,0,1-.8,2.111,2.689,2.689,0,0,1-2.042.8,1.844,1.844,0,0,1-1.9-1.775,1.658,1.658,0,0,1,0-.207,3.145,3.145,0,0,1,.758-2.068,2.524,2.524,0,0,1,1.982-.862,1.827,1.827,0,0,1,2,1.628,1.522,1.522,0,0,1,0,.4M854.224,708a2.371,2.371,0,0,0-1-.241c-.345,0-.81.138-.81.543,0,.767,1.637.724,1.637,2.051,0,1.172-.922,1.594-1.982,1.594a4.159,4.159,0,0,1-1.37-.267l.25-.818a2.826,2.826,0,0,0,1.18.336c.457,0,.913-.233.913-.75,0-.862-1.637-.724-1.637-2,0-1.008.862-1.439,1.792-1.439a3.446,3.446,0,0,1,1.249.207Zm-6.031,0a2.371,2.371,0,0,0-1-.241c-.345,0-.81.138-.81.543,0,.767,1.637.724,1.637,2.051,0,1.172-.922,1.594-1.982,1.594a4.16,4.16,0,0,1-1.37-.267l.25-.818a2.827,2.827,0,0,0,1.18.336c.457,0,.913-.233.913-.75,0-.862-1.637-.724-1.637-2,0-1.008.862-1.439,1.792-1.439a3.446,3.446,0,0,1,1.249.207Zm-9.676,2.016a1.043,1.043,0,0,0,1.017,1.18c1.1,0,1.723-1.318,1.723-2.266a1.034,1.034,0,0,0-.862-1.163h-.138c-1.12,0-1.723,1.292-1.723,2.257m3.739-.982a3.136,3.136,0,0,1-.81,2.111,2.663,2.663,0,0,1-2.042.8,1.835,1.835,0,0,1-1.9-1.775v-.207a3.187,3.187,0,0,1,.758-2.068,2.585,2.585,0,0,1,1.982-.862,1.827,1.827,0,0,1,2.007,1.628,1.53,1.53,0,0,1,0,.4m-11.2-1.947h1.215l1.034,3.627h0l.784-3.627h.913l-1.043,4.773h-1.241l-1-3.653h0l-.767,3.653h-.922Zm-8.737-1.275h.913l-.862,1h-.577Zm-1.387,1.042h2.835l-.146.75h-1.878l-.25,1.18h1.723l-.155.758h-1.723l-.284,1.336h1.9l-.164.75H819.94Zm-9.934-.276.862-1h.793l.517,1h-.612l-.345-.629-.551.629Zm-.224.276h2.826l-.138.75h-1.887l-.25,1.18h1.723l-.155.758h-1.723l-.276,1.336h1.9l-.164.758h-2.9Zm-3.24.956a1.922,1.922,0,0,0-1.1-.284,1.8,1.8,0,0,0-1.827,1.775.863.863,0,0,0,0,.146,1.4,1.4,0,0,0,1.3,1.508h.069a2.052,2.052,0,0,0,1.017-.3l-.155.922a4.31,4.31,0,0,1-1.094.129,2.042,2.042,0,0,1-2.163-1.9,2.881,2.881,0,0,1,2.473-3.033h.284a3.929,3.929,0,0,1,1.413.233Zm-10.495,1.973a1.042,1.042,0,0,0,1.017,1.18c1.1,0,1.723-1.318,1.723-2.266a1.034,1.034,0,0,0-.862-1.163H798.8c-1.12,0-1.723,1.292-1.723,2.257m3.739-.982a3.179,3.179,0,0,1-.81,2.111,2.663,2.663,0,0,1-2.042.8,1.835,1.835,0,0,1-1.9-1.775.861.861,0,0,1,0-.207,3.188,3.188,0,0,1,.758-2.1,2.533,2.533,0,0,1,1.982-.862,1.827,1.827,0,0,1,2.008,1.629,3.024,3.024,0,0,1,0,.4" transform="translate(-688.29 -652.659)" fill="#fff"/>
              </g>
            </g>
          </g>
        </g>
      </g>
    </g>
  </g>
</svg>
